<svg width="233" height="205" version="1.1" xmlns="http://www.w3.org/2000/svg" desc="Created with imagetracer.js version 1.2.6" ><path fill="rgb(207,213,218)" stroke="rgb(207,213,218)" stroke-width="1" opacity="1" d="M 58 48 L 81.5 48 L 82 52 L 58 52 L 58 60.5 L 57 66 L 49 66 L 49 56.5 L 50 52 L 58 52 L 58 48 Z " /><path fill="rgb(207,213,218)" stroke="rgb(207,213,218)" stroke-width="1" opacity="1" d="M 123 48 L 146.5 48 L 147 52 L 139 52 L 139 66 L 123.5 66 L 123 66.5 L 123 72 L 114 72 L 114 66 L 123 66 L 123 48 Z " /><path fill="rgb(207,213,218)" stroke="rgb(207,213,218)" stroke-width="1" opacity="1" d="M 74 66 L 82 66 L 82 72 L 74 72 L 74 66 Z " /><path fill="rgb(2,3,8)" stroke="rgb(2,3,8)" stroke-width="1" opacity="0.07450980392156863" d="M 0 0 L 35 0.5 L 34 1.5 L 34 13 L 2.5 13 L 2 13.5 L 2 21.5 L 1 22.5 L 0.5 44 L 0 0 Z " /><path fill="rgb(2,3,8)" stroke="rgb(2,3,8)" stroke-width="1" opacity="0.07450980392156863" d="M 227 0 L 232.5 0 L 233 0.5 L 233 149.5 L 232 149.5 L 232 125.5 L 231 124.5 L 231 100.5 L 230 99.5 L 229 54 L 227 53.5 L 227 45.5 L 228 44.5 L 228 24.5 L 227 23.5 L 227 0 Z " /><path fill="rgb(2,3,8)" stroke="rgb(2,3,8)" stroke-width="1" opacity="0.07450980392156863" d="M 0.5 58 L 6 102.5 L 8.5 109 L 31 109 L 31 117.5 L 30 118.5 L 30 147.5 Q 27.3 149.3 29 155.5 L 30 156.5 L 30 164.5 L 31 165.5 L 31 173.5 L 32 174.5 L 32 182.5 L 33 183.5 L 35 204 L 225.5 204 Q 226.5 204 226 199.5 L 227 198.5 L 232.5 155 L 233 205 L 0 205 L 0.5 58 Z " /><path fill="rgb(182,194,206)" stroke="rgb(182,194,206)" stroke-width="1" opacity="1" d="M 51 18 L 82.5 18 L 83 19.5 L 82 23.5 L 82 25.5 L 82 48 L 58 48 L 58 38 L 42 38 L 42 44.5 L 41.5 45 L 18 45 L 18 32 L 50 32 L 50 20.5 L 51 18 Z " /><path fill="rgb(182,194,206)" stroke="rgb(182,194,206)" stroke-width="1" opacity="1" d="M 115 18 L 209.5 18 L 210 19.5 L 211 20.5 L 211 32 L 203.5 32 L 202.5 31 L 201.5 32 L 147 32 L 147 48 L 123 48 L 123 38 L 114.5 38 L 114 37.5 L 114 20.5 L 115 18 Z " /><path fill="rgb(182,194,206)" stroke="rgb(182,194,206)" stroke-width="1" opacity="1" d="M 218.5 23 L 219 29.5 L 218 29.5 L 218.5 23 Z " /><path fill="rgb(182,194,206)" stroke="rgb(182,194,206)" stroke-width="1" opacity="1" d="M 10.5 24 L 11 28.5 L 10 28.5 L 10.5 24 Z " /><path fill="rgb(182,194,206)" stroke="rgb(182,194,206)" stroke-width="1" opacity="1" d="M 106.5 40 L 107 81.5 L 106 81.5 L 106.5 40 Z " /><path fill="rgb(182,194,206)" stroke="rgb(182,194,206)" stroke-width="1" opacity="1" d="M 9.5 46 L 10 50.5 L 9 50.5 L 9.5 46 Z " /><path fill="rgb(182,194,206)" stroke="rgb(182,194,206)" stroke-width="1" opacity="1" d="M 89.5 71 L 90 91.5 L 89 91.5 L 89.5 71 Z " /><path fill="rgb(182,194,206)" stroke="rgb(182,194,206)" stroke-width="1" opacity="1" d="M 220.5 78 L 221 84.5 L 220 84.5 L 220.5 78 Z " /><path fill="rgb(182,194,206)" stroke="rgb(182,194,206)" stroke-width="1" opacity="1" d="M 221.5 109 L 222 111.5 L 221 111.5 L 221.5 109 Z " /><path fill="rgb(182,194,206)" stroke="rgb(182,194,206)" stroke-width="1" opacity="1" d="M 222.5 133 L 223 139.5 L 222 139.5 L 222.5 133 Z " /><path fill="rgb(182,194,206)" stroke="rgb(182,194,206)" stroke-width="1" opacity="1" d="M 39 151 L 88.5 151 L 89 151.5 L 89 157 L 85 157 L 84.5 153 L 43 153 Q 45 159 39 157 L 39 151 Z " /><path fill="rgb(182,194,206)" stroke="rgb(182,194,206)" stroke-width="1" opacity="1" d="M 106 151 L 222.5 151 L 223 153.5 L 222 157 L 218 156.5 L 219 153 L 110.5 153 L 110 157 L 106 157 L 106 151 Z " /><path fill="rgb(18,25,52)" stroke="rgb(18,25,52)" stroke-width="1" opacity="1" d="M 35.5 0 L 226 0.5 L 35.5 1 L 35.5 0 Z " /><path fill="rgb(18,25,52)" stroke="rgb(18,25,52)" stroke-width="1" opacity="1" d="M 34.5 6 L 35 13.5 L 34 13.5 L 34.5 6 Z " /><path fill="rgb(18,25,52)" stroke="rgb(18,25,52)" stroke-width="1" opacity="1" d="M 226.5 6 L 227 11.5 L 226 11.5 L 226.5 6 Z " /><path fill="rgb(18,25,52)" stroke="rgb(18,25,52)" stroke-width="1" opacity="1" d="M 34.5 19 L 35 21.5 L 34 21.5 L 34.5 19 Z " /><path fill="rgb(18,25,52)" stroke="rgb(18,25,52)" stroke-width="1" opacity="1" d="M 1.5 27 L 2 32.5 L 1 32.5 L 1.5 27 Z " /><path fill="rgb(18,25,52)" stroke="rgb(18,25,52)" stroke-width="1" opacity="1" d="M 227.5 31 L 228 36.5 L 227 36.5 L 227.5 31 Z " /><path fill="rgb(18,25,52)" stroke="rgb(18,25,52)" stroke-width="1" opacity="1" d="M 0.5 49 L 1 55.5 L 0 55.5 L 0.5 49 Z " /><path fill="rgb(18,25,52)" stroke="rgb(18,25,52)" stroke-width="1" opacity="1" d="M 228.5 57 L 229 61.5 L 227 62.5 L 228.5 57 Z " /><path fill="rgb(18,25,52)" stroke="rgb(18,25,52)" stroke-width="1" opacity="1" d="M 225.5 77 L 226 79.5 L 225 79.5 L 225.5 77 Z " /><path fill="rgb(18,25,52)" stroke="rgb(18,25,52)" stroke-width="1" opacity="1" d="M 229.5 82 L 230 87.5 L 229 87.5 L 229.5 82 Z " /><path fill="rgb(18,25,52)" stroke="rgb(18,25,52)" stroke-width="1" opacity="1" d="M 223.5 94 L 224 96.5 L 223 96.5 L 223.5 94 Z " /><path fill="rgb(18,25,52)" stroke="rgb(18,25,52)" stroke-width="1" opacity="1" d="M 222.5 103 L 223 105.5 L 222 105.5 L 222.5 103 Z " /><path fill="rgb(18,25,52)" stroke="rgb(18,25,52)" stroke-width="1" opacity="1" d="M 230.5 107 L 231 112.5 L 230 112.5 L 230.5 107 Z " /><path fill="rgb(18,25,52)" stroke="rgb(18,25,52)" stroke-width="1" opacity="1" d="M 30.5 125 L 31 132.5 L 30 132.5 L 30.5 125 Z " /><path fill="rgb(18,25,52)" stroke="rgb(18,25,52)" stroke-width="1" opacity="1" d="M 231.5 132 L 232 137.5 L 231 137.5 L 231.5 132 Z " /><path fill="rgb(18,25,52)" stroke="rgb(18,25,52)" stroke-width="1" opacity="1" d="M 230.5 166 L 231 168.5 L 230 168.5 L 230.5 166 Z " /><path fill="rgb(18,25,52)" stroke="rgb(18,25,52)" stroke-width="1" opacity="1" d="M 50 180 L 81.5 180 L 82 180.5 L 82 190 L 50.5 190 L 50 189.5 L 50 180 Z " /><path fill="rgb(18,25,52)" stroke="rgb(18,25,52)" stroke-width="1" opacity="1" d="M 114 180 L 212 180.5 L 211 181.5 L 211 190 L 118.5 190 L 117.5 189 L 114 190 L 114 180 Z " /><path fill="rgb(18,25,52)" stroke="rgb(18,25,52)" stroke-width="1" opacity="1" d="M 90.5 181 L 91 185.5 L 90 185.5 L 90.5 181 Z " /><path fill="rgb(18,25,52)" stroke="rgb(18,25,52)" stroke-width="1" opacity="1" d="M 219.5 182 L 220 184.5 L 219 184.5 L 219.5 182 Z " /><path fill="rgb(18,25,52)" stroke="rgb(18,25,52)" stroke-width="1" opacity="1" d="M 227.5 188 L 228 190.5 L 227 190.5 L 227.5 188 Z " /><path fill="rgb(18,25,52)" stroke="rgb(18,25,52)" stroke-width="1" opacity="1" d="M 218.5 190 L 219 192.5 L 218 192.5 L 218.5 190 Z " /><path fill="rgb(237,240,242)" stroke="rgb(237,240,242)" stroke-width="1" opacity="1" d="M 110 38 L 114 38.5 L 114 62 L 110 61.5 L 110 38 Z " /><path fill="rgb(237,240,242)" stroke="rgb(237,240,242)" stroke-width="1" opacity="1" d="M 42 45 L 50 45 L 50 55.5 L 49 56.5 L 49 66 L 45 66 L 45 54.5 L 46 48 Q 40.4 49.9 42 45 Z " /><path fill="rgb(237,240,242)" stroke="rgb(237,240,242)" stroke-width="1" opacity="1" d="M 82 52 L 86 52 L 86 62 L 82 62 L 82 52 Z " /><path fill="rgb(237,240,242)" stroke="rgb(237,240,242)" stroke-width="1" opacity="1" d="M 147 52 L 151 52 L 151 62 L 147 62 L 147 52 Z " /><path fill="rgb(237,240,242)" stroke="rgb(237,240,242)" stroke-width="1" opacity="1" d="M 82 66 L 86 66.5 L 86 79 L 82 78.5 L 82 66 Z " /><path fill="rgb(237,240,242)" stroke="rgb(237,240,242)" stroke-width="1" opacity="1" d="M 110 66 L 114 66.5 L 114 79 L 110 78.5 L 110 66 Z " /><path fill="rgb(237,240,242)" stroke="rgb(237,240,242)" stroke-width="1" opacity="1" d="M 172.5 69 L 215.5 69 L 216 69.5 L 216 76.5 L 217 79 L 212 79 L 212 72.5 L 211.5 72 L 171.5 72 L 171 70.5 L 172.5 69 Z " /><path fill="rgb(237,240,242)" stroke="rgb(237,240,242)" stroke-width="1" opacity="1" d="M 49 83 L 57 83 L 57 93 L 73 93 L 73 83 L 82 83 L 81 86.5 L 81 108 L 48 108 L 48 93.5 L 49 92.5 L 49 83 Z " /><path fill="rgb(237,240,242)" stroke="rgb(237,240,242)" stroke-width="1" opacity="1" d="M 114 83 L 139 83 L 139 93 L 146.5 93 L 147 93.5 L 147 108 L 140.5 107 L 139.5 108 L 114 108 L 114 83 Z " /><path fill="rgb(237,240,242)" stroke="rgb(237,240,242)" stroke-width="1" opacity="1" d="M 155 83 L 171.5 83 L 172 86 L 180 86 L 180 90 L 172 90 L 171.5 86 L 155 86 L 155 90 L 147 90 L 147 86 L 155 86 L 155 83 Z " /><path fill="rgb(237,240,242)" stroke="rgb(237,240,242)" stroke-width="1" opacity="1" d="M 188 83 L 213 83 L 213 93 L 205 93 L 205 104 L 213 104 L 213 108 L 180 108 L 180 93 L 188 93 L 188 83 Z " /><path fill="rgb(18,24,51)" stroke="rgb(18,24,51)" stroke-width="1" opacity="1" d="M 226.5 0 L 227 5.5 Q 224.8 6.7 226 11.5 L 227 12.5 L 228 30.5 Q 225.7 31.7 227 36.5 Q 229.8 38.3 228 44.5 L 227 45.5 L 227 54.5 L 229 54.5 L 227 62.5 L 229 62.5 L 230 81.5 Q 227.8 82.7 229 87.5 L 230 88.5 L 231 106.5 Q 228.8 107.7 230 112.5 L 231 113.5 L 232 131.5 Q 229.7 132.7 231 137.5 L 232 138.5 L 233 154.5 L 231 160.5 L 231 162.5 L 230 168.5 L 230 170.5 L 229 175.5 L 229 177.5 L 228 182.5 L 228 184.5 L 227 190.5 L 227 192.5 L 226 197.5 L 226 199.5 Q 226.8 203.3 224.5 204 L 35.5 204 L 35 200.5 L 34 197.5 L 34 195.5 L 33 189.5 L 34 187.5 L 32 180.5 L 33 178.5 L 31 171.5 L 32 169.5 L 30 162.5 L 30 160.5 L 29 148.5 L 30 147.5 L 31 125.5 Q 28.5 124 30 118.5 L 31 117.5 L 31 109 L 8.5 109 L 8 107.5 L 6 101.5 L 7 99.5 L 5 93.5 L 5 91.5 L 4 86.5 L 5 84.5 L 3 78.5 L 3 76.5 L 2 71.5 L 3 69.5 L 1 63.5 L 1 61.5 L 0 56.5 Q 2.5 55 1 49.5 L 0 44.5 L 1 43.5 L 2 27.5 L 1 22.5 L 2 21.5 L 2 13 L 33.5 13 L 34.5 14 L 35 6.5 L 34 1 L 225.5 1 L 226.5 0 Z M 43 11 L 42 25 L 12 25 L 11 24 L 10 34 L 9 35 L 9 51 L 11 52 L 37 52 L 38 54 L 38 52 L 42 53 L 41 54 L 40 118 L 39 119 L 39 160 L 41 171 L 41 180 L 42 181 L 42 190 L 43 191 L 44 194 L 91 194 L 91 182 L 90 181 L 90 157 L 89 156 L 89 134 L 90 133 L 90 52 L 91 51 L 91 11 L 43 11 Z M 106 11 L 106 123 L 105 124 L 105 159 L 106 160 L 106 194 L 107 194 L 218 194 L 219 193 L 222 161 L 224 152 L 223 147 L 223 120 L 222 119 L 222 107 L 223 106 Q 221 101 222 93 L 221 92 L 221 66 L 176 66 L 174 66 L 155 66 L 155 38 L 220 38 L 219 37 L 219 13 L 218 11 L 106 11 Z M 35 19 L 34 22 L 35 22 L 35 19 Z M 226 77 L 225 80 L 226 80 L 226 77 Z M 224 94 L 223 97 L 224 97 L 224 94 Z " /><path fill="rgb(18,24,51)" stroke="rgb(18,24,51)" stroke-width="1" opacity="1" d="M 155 93 L 172 93 L 172 122 L 156 122 L 156 102.5 L 155 101.5 L 155 93 Z " /><path fill="rgb(222,230,235)" stroke="rgb(222,230,235)" stroke-width="1" opacity="1" d="M 47 15 L 86.5 15 Q 87.5 15 87 19.5 L 86 20.5 L 86 52 L 82 51.5 L 82 25.5 L 82 23.5 L 83 18 L 51.5 18 L 51 19.5 L 50 20.5 L 50 32 L 18 32 L 18 45 L 41.5 45 L 42 48 L 13.5 48 L 13 44.5 L 14 43.5 L 14 28 L 45.5 28 L 46 27.5 L 46 20.5 L 47 15 Z " /><path fill="rgb(222,230,235)" stroke="rgb(222,230,235)" stroke-width="1" opacity="1" d="M 111 15 L 213.5 15 L 215 16.5 L 214 19.5 L 215 20.5 L 215 35 L 151.5 35 L 151 35.5 L 151 51.5 L 147 52 L 147 32 L 210.5 32 L 211 31.5 L 211 20.5 L 210 18 L 115.5 18 L 115 19.5 L 114 20.5 L 114 38 L 110 37.5 L 110 20.5 L 111 15 Z " /><path fill="rgb(222,230,235)" stroke="rgb(222,230,235)" stroke-width="1" opacity="1" d="M 58 59 L 81.5 59 L 82 59.5 L 82 66 L 74 66 L 74 74.5 L 73 79 L 82 79 L 82 83 L 73 83 L 72.5 79 L 57 79 L 57 83 L 49 83 L 49 66 L 57.5 66 L 57 64.5 L 58 59 Z " /><path fill="rgb(222,230,235)" stroke="rgb(222,230,235)" stroke-width="1" opacity="1" d="M 114 59 L 123 59 L 123 65.5 L 123.5 66 L 139 66 L 139 59 L 147 59 L 147 72 L 170.5 72 L 171 74.5 L 172 75.5 L 172 83 L 155.5 83 L 154.5 79 L 139 79 L 138.5 83 L 114 83 L 114 79 L 123 79 L 123 66 L 114 66 L 114 59 Z " /><path fill="rgb(222,230,235)" stroke="rgb(222,230,235)" stroke-width="1" opacity="1" d="M 188 79 L 211.5 79 L 213 80.5 L 212.5 83 L 188 83 L 188 79 Z " /><path fill="rgb(222,230,235)" stroke="rgb(222,230,235)" stroke-width="1" opacity="1" d="M 57 86 L 73 86 L 73 93 L 57 93 L 57 86 Z " /><path fill="rgb(222,230,235)" stroke="rgb(222,230,235)" stroke-width="1" opacity="1" d="M 139 86 L 147 86 L 147 93 L 139 93 L 139 86 Z " /><path fill="rgb(222,230,235)" stroke="rgb(222,230,235)" stroke-width="1" opacity="1" d="M 180 86 L 188 86 L 188 93 L 180 93 L 180 86 Z " /><path fill="rgb(222,230,235)" stroke="rgb(222,230,235)" stroke-width="1" opacity="1" d="M 205 93 L 213 93 L 213 104 L 205 104 L 205 93 Z " /><path fill="rgb(216,222,226)" stroke="rgb(216,222,226)" stroke-width="1" opacity="1" d="M 42 38 L 58 38 L 58 52 L 81.5 52 L 82 52.5 L 82 59 L 58 59 L 58 52 L 50 52 L 50 45 L 42 45 L 42 38 Z " /><path fill="rgb(216,222,226)" stroke="rgb(216,222,226)" stroke-width="1" opacity="1" d="M 114 38 L 123 38 L 123 59 L 114 59 L 114 38 Z " /><path fill="rgb(216,222,226)" stroke="rgb(216,222,226)" stroke-width="1" opacity="1" d="M 139 52 L 147 52 L 147 59 L 139 59 L 139 52 Z " /><path fill="rgb(216,222,226)" stroke="rgb(216,222,226)" stroke-width="1" opacity="1" d="M 74 72 L 82 72 L 82 79 L 73 79 L 73 85.5 L 72.5 86 L 57 86 L 57 79 L 72.5 79 L 73 75.5 L 74 72 Z " /><path fill="rgb(216,222,226)" stroke="rgb(216,222,226)" stroke-width="1" opacity="1" d="M 114 72 L 123 72 L 123 79 L 114 79 L 114 72 Z " /><path fill="rgb(216,222,226)" stroke="rgb(216,222,226)" stroke-width="1" opacity="1" d="M 171 72 L 211.5 72 L 212 72.5 L 212 79 L 188.5 79 L 188 79.5 L 188 86 L 172 86 Q 173.1 77 171 72 Z " /><path fill="rgb(216,222,226)" stroke="rgb(216,222,226)" stroke-width="1" opacity="1" d="M 139 79 L 155 79 L 155 86 L 139 86 L 139 79 Z " /><path fill="rgb(253,254,254)" stroke="rgb(253,254,254)" stroke-width="1" opacity="0.996078431372549" d="M 43 12 L 90 12 L 90 70.5 L 89 71.5 L 89 151 L 39 151 L 39 118.5 L 40 117.5 L 40 94.5 L 41 93.5 Q 38.5 92 40 86.5 L 41 85.5 L 41 53.5 L 42 52.5 L 10 52 L 10 29.5 L 11 25 L 41.5 25 Q 42.5 25 42 20.5 L 43 19.5 L 43 12 Z M 47 15 L 46 21 L 46 28 L 46 28 L 14 28 L 14 44 L 13 45 L 14 48 L 46 48 L 45 55 L 45 89 L 44 90 L 44 118 L 48 118 L 47 136 L 81 136 L 81 119 L 85 118 L 85 94 L 86 93 L 86 21 L 87 20 Q 87 15 87 15 L 47 15 Z " /><path fill="rgb(253,254,254)" stroke="rgb(253,254,254)" stroke-width="1" opacity="0.996078431372549" d="M 107 12 L 217.5 12 L 218 12.5 L 218 29.5 L 219 30.5 L 219 38 L 155 38 L 155 66 L 219.5 66 L 220 66.5 L 220 84.5 L 221 85.5 L 221 107.5 L 222 108.5 L 221 111.5 L 222 112.5 L 222 139.5 L 223 140.5 L 223 151 L 106 151 L 106 82.5 L 107 81.5 L 107 12 Z M 111 15 L 110 21 L 110 118 L 114 119 L 114 136 L 214 136 L 214 136 L 214 119 L 218 118 L 218 107 L 217 106 L 217 78 L 216 77 L 216 70 L 216 69 L 151 69 L 151 35 L 215 35 L 215 21 L 214 20 L 215 17 L 214 15 L 111 15 Z " /><path fill="rgb(253,254,254)" stroke="rgb(253,254,254)" stroke-width="1" opacity="0.996078431372549" d="M 151 90 L 176 90 L 176 117.5 L 181 118 L 181 129 L 147.5 129 L 147 128.5 L 147 118 L 152 118 L 152 114.5 L 151 113.5 L 151 90 Z M 155 93 L 155 102 L 156 103 L 156 122 L 172 122 L 172 93 L 155 93 Z " /><path fill="rgb(244,246,248)" stroke="rgb(244,246,248)" stroke-width="1" opacity="1" d="M 82 62 Q 88 60 86 66 Q 80 68 82 62 Z " /><path fill="rgb(244,246,248)" stroke="rgb(244,246,248)" stroke-width="1" opacity="1" d="M 110 62 Q 116 60 114 66 Q 108 68 110 62 Z " /><path fill="rgb(244,246,248)" stroke="rgb(244,246,248)" stroke-width="1" opacity="1" d="M 147 62 L 151 62 L 151 68.5 L 151.5 69 L 171.5 69 L 171 70.5 L 170.5 72 L 147 72 L 147 62 Z " /><path fill="rgb(244,246,248)" stroke="rgb(244,246,248)" stroke-width="1" opacity="1" d="M 45 66 L 49 66.5 L 49 78.5 L 49 80.5 L 49 93 L 44 93 L 45 88.5 L 45 66 Z " /><path fill="rgb(244,246,248)" stroke="rgb(244,246,248)" stroke-width="1" opacity="1" d="M 82 79 L 86 79.5 L 86 93 L 81 93 L 81 86.5 L 82 85.5 L 82 79 Z " /><path fill="rgb(244,246,248)" stroke="rgb(244,246,248)" stroke-width="1" opacity="1" d="M 110 79 L 114 79.5 L 114 93 L 110 92.5 L 110 79 Z " /><path fill="rgb(244,246,248)" stroke="rgb(244,246,248)" stroke-width="1" opacity="1" d="M 212.5 79 Q 217 78.5 217 79.5 L 217 105.5 L 218 108 L 213 108.5 L 214 109.5 L 214 122 L 181.5 122 L 181 121.5 L 181 114.5 L 180 108 L 213 108 L 213 80.5 L 212.5 79 Z " /><path fill="rgb(244,246,248)" stroke="rgb(244,246,248)" stroke-width="1" opacity="1" d="M 155 86 L 171.5 86 L 172 90 L 155.5 90 L 155 86 Z " /><path fill="rgb(244,246,248)" stroke="rgb(244,246,248)" stroke-width="1" opacity="1" d="M 147 90 Q 152.6 88.1 151 93 Q 145.4 94.9 147 90 Z " /><path fill="rgb(244,246,248)" stroke="rgb(244,246,248)" stroke-width="1" opacity="1" d="M 176 90 Q 181.6 88.1 180 93 Q 174.4 94.9 176 90 Z " /><path fill="rgb(244,246,248)" stroke="rgb(244,246,248)" stroke-width="1" opacity="1" d="M 140.5 107 L 147 108 L 147 122 L 130.5 122 L 128.5 122 L 114 122 L 114 108 L 139.5 108 L 140.5 107 Z " /><path fill="rgb(244,246,248)" stroke="rgb(244,246,248)" stroke-width="1" opacity="1" d="M 48 108 L 81 108 L 81 122 L 48 122 L 48 108 Z " /><path fill="rgb(248,249,250)" stroke="rgb(248,249,250)" stroke-width="1" opacity="1" d="M 44 93 L 48 93.5 L 48 118 L 44 117.5 L 44 93 Z " /><path fill="rgb(248,249,250)" stroke="rgb(248,249,250)" stroke-width="1" opacity="1" d="M 81 93 L 85 93.5 L 85 118 L 81 117.5 L 81 93 Z " /><path fill="rgb(248,249,250)" stroke="rgb(248,249,250)" stroke-width="1" opacity="1" d="M 110 93 L 114 93.5 L 114 118 L 110 117.5 L 110 93 Z " /><path fill="rgb(248,249,250)" stroke="rgb(248,249,250)" stroke-width="1" opacity="1" d="M 147 93 L 151 93.5 L 151 113.5 L 152 118 L 147 117.5 L 147 100.5 L 147 98.5 L 147 93 Z " /><path fill="rgb(248,249,250)" stroke="rgb(248,249,250)" stroke-width="1" opacity="1" d="M 176 93 L 180 93.5 L 180 113.5 L 181 118 L 176 117.5 L 176 93 Z " /><path fill="rgb(248,249,250)" stroke="rgb(248,249,250)" stroke-width="1" opacity="1" d="M 213.5 108 L 218 108 L 218 118 L 214 118 L 214 109.5 L 213.5 108 Z " /><path fill="rgb(248,249,250)" stroke="rgb(248,249,250)" stroke-width="1" opacity="1" d="M 129.5 121 L 130.5 122 L 147 122 L 147 128.5 L 147.5 129 L 181 129 L 181 122.5 L 181.5 122 L 214 122 L 214 135.5 L 213.5 136 L 114 136 L 114 122 L 128.5 122 L 129.5 121 Z " /><path fill="rgb(248,249,250)" stroke="rgb(248,249,250)" stroke-width="1" opacity="1" d="M 48 122 L 81 122 L 81 136 L 47.5 136 Q 46.4 135.9 47 130.5 L 48 129.5 L 48 122 Z " /><path fill="rgb(97,117,160)" stroke="rgb(97,117,160)" stroke-width="1" opacity="1" d="M 43.5 11 L 89.5 11 L 91 12.5 L 90.5 29 L 90 12 L 43.5 12 L 43.5 11 Z " /><path fill="rgb(97,117,160)" stroke="rgb(97,117,160)" stroke-width="1" opacity="1" d="M 107.5 11 L 218 11.5 L 107 12 L 106.5 40 L 106 12.5 L 107.5 11 Z " /><path fill="rgb(97,117,160)" stroke="rgb(97,117,160)" stroke-width="1" opacity="1" d="M 218.5 16 L 219 22.5 L 218 22.5 L 218.5 16 Z " /><path fill="rgb(97,117,160)" stroke="rgb(97,117,160)" stroke-width="1" opacity="1" d="M 9.5 41 L 10 45.5 L 9 45.5 L 9.5 41 Z " /><path fill="rgb(97,117,160)" stroke="rgb(97,117,160)" stroke-width="1" opacity="1" d="M 220.5 71 L 221 77.5 L 220 77.5 L 220.5 71 Z " /><path fill="rgb(97,117,160)" stroke="rgb(97,117,160)" stroke-width="1" opacity="1" d="M 89.5 92 L 90 111.5 L 89 111.5 L 89.5 92 Z " /><path fill="rgb(97,117,160)" stroke="rgb(97,117,160)" stroke-width="1" opacity="1" d="M 221.5 98 L 222 105.5 L 221 105.5 L 221.5 98 Z " /><path fill="rgb(97,117,160)" stroke="rgb(97,117,160)" stroke-width="1" opacity="1" d="M 222.5 126 L 223 132.5 L 222 132.5 L 222.5 126 Z " /><path fill="rgb(97,117,160)" stroke="rgb(97,117,160)" stroke-width="1" opacity="1" d="M 43 153 L 85 153 L 85 157 L 89 157.5 L 89 169 L 85 167.5 Q 87 160.8 81 163 L 81 155.5 L 80.5 155 L 47 155 L 48 163 L 44 163 L 44 169 L 40 169 Q 40.9 161.3 39 157 Q 45 159 43 153 Z " /><path fill="rgb(97,117,160)" stroke="rgb(97,117,160)" stroke-width="1" opacity="1" d="M 110 153 L 218.5 153 L 219 155.5 L 218.5 157 Q 223.3 158.7 222 154.5 L 223 154.5 L 221 169 Q 215 171.3 217 164.5 L 217.5 163 L 214 163 L 214 155.5 L 213.5 155 L 114 155 L 114 163 L 110 163 L 110 169 L 106 169 L 106 157.5 L 110 157 L 110 153 Z " /><path fill="rgb(36,48,86)" stroke="rgb(36,48,86)" stroke-width="1" opacity="1" d="M 105.5 153 L 106 158.5 L 105 158.5 L 105.5 153 Z " /><path fill="rgb(36,48,86)" stroke="rgb(36,48,86)" stroke-width="1" opacity="1" d="M 89.5 156 L 90 161.5 L 89 161.5 L 89.5 156 Z " /><path fill="rgb(36,48,86)" stroke="rgb(36,48,86)" stroke-width="1" opacity="1" d="M 48 165 L 80.5 165 Q 81.5 165 81 169.5 L 82 170.5 L 82 177 L 86 177 L 86 184 L 90 184 L 90 185.5 L 91 186.5 L 91 194 L 43.5 194 L 43 190.5 L 42 184 Q 48 186.3 46 179.5 L 45 177 L 49 177 L 49 168.5 L 48 165 Z M 50 180 L 50 190 L 51 190 L 82 190 L 82 181 L 82 180 L 50 180 Z " /><path fill="rgb(36,48,86)" stroke="rgb(36,48,86)" stroke-width="1" opacity="1" d="M 114 165 L 212.5 165 Q 213.8 165.3 213 171.5 L 212 177 Q 217.6 174.8 216 180.5 L 215 184 Q 221.4 181.7 219 189.5 L 218 194 L 107.5 194 L 106 192.5 L 106.5 176 L 107 184 L 110 184 L 110 177 L 114 177 L 114 165 Z M 114 180 L 114 190 L 118 189 L 119 190 L 211 190 L 211 182 L 212 181 L 114 180 Z " /><path fill="rgb(36,48,86)" stroke="rgb(36,48,86)" stroke-width="1" opacity="1" d="M 221.5 166 L 222 168.5 L 221 168.5 L 221.5 166 Z " /><path fill="rgb(36,48,86)" stroke="rgb(36,48,86)" stroke-width="1" opacity="1" d="M 219.5 178 L 220 181.5 L 219 181.5 L 219.5 178 Z " /><path fill="rgb(57,71,107)" stroke="rgb(57,71,107)" stroke-width="1" opacity="1" d="M 218.5 12 L 219 15.5 L 218 15.5 L 218.5 12 Z " /><path fill="rgb(57,71,107)" stroke="rgb(57,71,107)" stroke-width="1" opacity="1" d="M 90.5 29 L 91 50.5 L 90 50.5 L 90.5 29 Z " /><path fill="rgb(57,71,107)" stroke="rgb(57,71,107)" stroke-width="1" opacity="1" d="M 9.5 34 L 10 40.5 L 9 40.5 L 9.5 34 Z " /><path fill="rgb(57,71,107)" stroke="rgb(57,71,107)" stroke-width="1" opacity="1" d="M 220.5 66 L 221 70.5 L 220 70.5 L 220.5 66 Z " /><path fill="rgb(57,71,107)" stroke="rgb(57,71,107)" stroke-width="1" opacity="1" d="M 221.5 92 L 222 97.5 L 221 97.5 L 221.5 92 Z " /><path fill="rgb(57,71,107)" stroke="rgb(57,71,107)" stroke-width="1" opacity="1" d="M 89.5 112 L 90 132.5 L 89 132.5 L 89.5 112 Z " /><path fill="rgb(57,71,107)" stroke="rgb(57,71,107)" stroke-width="1" opacity="1" d="M 222.5 119 L 223 125.5 L 222 125.5 L 222.5 119 Z " /><path fill="rgb(57,71,107)" stroke="rgb(57,71,107)" stroke-width="1" opacity="1" d="M 105.5 123 L 106 152.5 L 105 152.5 L 105.5 123 Z " /><path fill="rgb(57,71,107)" stroke="rgb(57,71,107)" stroke-width="1" opacity="1" d="M 223.5 147 L 224 151.5 L 223 151.5 L 223.5 147 Z " /><path fill="rgb(57,71,107)" stroke="rgb(57,71,107)" stroke-width="1" opacity="1" d="M 47 155 L 80.5 155 L 81 155.5 L 81 163 Q 87 160.8 85 167.5 Q 86.2 170 90 169 L 90 183.5 L 86 184 L 86 177 L 82 176.5 L 82 170.5 L 81 165 L 48.5 165 L 48 167.5 L 49 168.5 L 49 177 L 45 177 L 45 178.5 L 46 184 Q 40.4 186.2 42 180.5 L 40 169.5 L 44 169 L 44 163 Q 50.4 165.3 48 157.5 L 47 155 Z " /><path fill="rgb(57,71,107)" stroke="rgb(57,71,107)" stroke-width="1" opacity="1" d="M 114 155 L 213.5 155 L 214 155.5 L 214 163 L 217.5 163 L 217 164.5 L 217 169 Q 222.6 166.8 221 172.5 Q 218.3 177.1 219 184 Q 213.8 186.1 215 181.5 L 216 177 Q 210 179.3 212 172.5 L 213 171.5 L 213 165 L 114.5 165 L 114 165.5 L 114 177 L 110 177 L 110 184 L 107 184 L 106 169 L 110 169 L 110 163 L 114 163 L 114 155 Z " /><path fill="rgb(57,71,107)" stroke="rgb(57,71,107)" stroke-width="1" opacity="1" d="M 89.5 162 L 90 166.5 L 89 166.5 L 89.5 162 Z " /><path fill="rgb(57,71,107)" stroke="rgb(57,71,107)" stroke-width="1" opacity="1" d="M 221.5 162 L 222 165.5 L 221 165.5 L 221.5 162 Z " /></svg>