<svg xmlns="http://www.w3.org/2000/svg" width="64" height="64" viewBox="0 0 64 64">
  <defs>
    <linearGradient id="g" x1="0" y1="0" x2="1" y2="1">
      <stop offset="0" stop-color="#863BFF"/>
      <stop offset="1" stop-color="#47BFFF"/>
    </linearGradient>
  </defs>
  <circle cx="32" cy="32" r="22" fill="url(#g)"/>
  <path d="M34.5 19.5c-.5-.7-1.6-.3-1.6.5v9.3c0 1.6-1.3 2.9-2.9 2.9H18.9c-.6 0-1 .7-.6 1.2l8.3 11.7c.2.3.5.4.8.4H44c.8 0 1.3-.9.8-1.5l-7-11.1c-.7-1.1 0-2.5 1.3-2.5h6.1c.9 0 1.5-1 1-1.7l-12.1-15.5Z" fill="#0b0b12" opacity="0.85"/>
  <!-- Цифры 1 и 6 как вектор (без <text>) -->
  <g fill="none" stroke="#fff" stroke-width="7" stroke-linecap="round" stroke-linejoin="round">
    <!-- "1" -->
    <path d="M28.5 22.5L34.5 22.5L30 27.5L30 49.5" />
    <!-- "6" -->
    <path d="M42.8 25.2C39.9 22.7 34.9 23.1 33.1 26.8C30.8 31.7 33.9 35.2 39.3 34.6C45 33.9 48.0 37.0 47.2 41.9C46.2 47.8 39.7 51.2 34.2 48.6C30.7 47.0 29.2 43.6 30.1 40.1" />
  </g>
</svg>

